<svg width="1285" height="340" viewBox="0 0 1285 340" fill="none" xmlns="http://www.w3.org/2000/svg">
<g clip-path="url(#clip0_1_2)">
<rect width="1285" height="340" fill="white"/>
<g clip-path="url(#clip1_1_2)">
<mask id="mask0_1_2" style="mask-type:luminance" maskUnits="userSpaceOnUse" x="53" y="50" width="292" height="292">
<path d="M345 50H53V342H345V50Z" fill="white"/>
</mask>
<g mask="url(#mask0_1_2)">
<path d="M179.609 161.211H185.312C186.451 161.21 187.597 161.238 188.734 161.16C189.883 161.081 191.014 160.866 192.156 160.729L193.867 160.552C194.822 160.431 195.77 160.276 196.719 160.115C197.675 159.955 198.628 159.791 199.57 159.558C200.34 159.367 201.102 159.143 201.852 158.885C202.428 158.687 202.996 158.466 203.562 158.243C204.526 157.863 205.49 157.475 206.414 157.006C207.404 156.504 208.339 155.913 209.266 155.302C210.056 154.782 210.821 154.218 211.546 153.611C212.72 152.629 213.802 151.537 214.797 150.374C215.566 149.475 216.283 148.528 216.909 147.523C217.367 146.787 217.755 146.011 218.155 145.242L219.056 143.531L219.954 141.82L221.383 138.969C221.855 138.022 222.335 137.079 222.777 136.117L224.014 133.266C224.53 132.108 225.098 130.977 225.664 129.844L226.804 127.563C227.472 126.228 228.121 124.882 228.832 123.57C229.25 122.799 229.691 122.041 230.141 121.289C230.833 120.136 231.538 118.992 232.274 117.867C233.164 116.508 234.077 115.166 235.064 113.875C235.506 113.297 235.957 112.724 236.422 112.164L237.376 111.026C237.885 110.457 238.397 109.896 238.944 109.364C240.025 108.31 241.211 107.369 242.344 106.372L244.625 104.343C245.921 103.244 247.249 102.185 248.617 101.177L250.328 99.9477C251.271 99.2727 252.206 98.5886 253.179 97.9573L255.376 96.5953L256.254 95.9247L256.799 95.3073L257.172 94.4844C256.214 94.4764 255.261 94.4812 254.306 94.3875L251.469 94.0104L248.617 93.8177L245.766 93.4406C244.817 93.3503 243.866 93.3488 242.914 93.3442L240.062 93.3438H236.07C235.311 93.3441 234.548 93.3329 233.789 93.3662C233.215 93.3913 232.648 93.4362 232.078 93.5066L229.797 93.8177C229.038 93.8935 228.276 93.9145 227.516 93.9629L226.375 94.0769L224.094 94.41L222.383 94.641L220.672 94.9434C218.754 95.3133 216.862 95.7919 214.969 96.2675C214.016 96.5068 213.062 96.7399 212.117 97.0094C211.351 97.228 210.592 97.4689 209.836 97.7183C209.072 97.9705 208.306 98.2257 207.555 98.5135C206.978 98.7342 206.404 98.9655 205.844 99.2246C204.883 99.6685 203.939 100.145 202.992 100.617L200.72 101.759C200.172 102.043 199.624 102.326 199.097 102.647C198.052 103.281 197.092 104.044 196.097 104.752C195.162 105.418 194.199 106.045 193.297 106.756C191.87 107.882 190.588 109.17 189.305 110.454C188.022 111.736 186.731 113.017 185.608 114.445C184.892 115.356 184.26 116.325 183.632 117.297C183.15 118.045 182.687 118.808 182.242 119.578C181.916 120.142 181.595 120.707 181.303 121.289C180.929 122.035 180.598 122.803 180.269 123.57C179.867 124.508 179.469 125.447 179.164 126.422C178.756 127.727 178.51 129.076 178.241 130.414L177.899 132.125L177.578 133.836C177.49 134.403 177.41 134.973 177.379 135.547C177.328 136.497 177.33 137.447 177.328 138.398V142.391V146.383C177.33 147.716 177.311 149.052 177.499 150.375C177.664 151.529 177.984 152.655 178.213 153.797L178.725 156.648L179.344 159.409L179.503 160.258L179.609 161.211Z" fill="#008A45"/>
<path d="M185.312 217.672L184.693 216.921L184.447 216.725L183.989 216.307C183.493 215.921 182.976 215.562 182.451 215.217C181.743 214.752 181.016 214.319 180.271 213.916L179.7 213.64L179.422 213.493L178.469 213.109L179.422 212.776L179.7 212.743L180.271 212.629L181.893 212.496C182.466 212.447 183.032 212.373 183.602 212.297L185.312 212.063L187.594 211.874C188.738 211.751 189.866 211.528 191.016 211.45C191.964 211.385 192.918 211.4 193.867 211.398H197.289L200.711 211.399C201.471 211.401 202.233 211.397 202.992 211.45C204.141 211.528 205.27 211.751 206.414 211.874C207.364 211.976 208.318 212.006 209.266 212.134C210.606 212.314 211.927 212.627 213.258 212.868L216.109 213.365C216.875 213.513 217.636 213.702 218.391 213.895C219.156 214.091 219.922 214.294 220.672 214.546L223.523 215.538L225.805 216.255C227.152 216.722 228.475 217.253 229.797 217.786C230.951 218.252 232.105 218.717 233.219 219.274C234.193 219.761 235.134 220.31 236.07 220.868C237.035 221.443 237.993 222.028 238.922 222.66C240.103 223.464 241.235 224.334 242.344 225.235L244.052 226.657C244.799 227.286 245.548 227.914 246.239 228.605C247.104 229.469 247.881 230.419 248.661 231.36C249.128 231.924 249.596 232.488 250.041 233.07C250.467 233.627 250.872 234.2 251.263 234.781C251.642 235.342 251.999 235.915 252.351 236.492L253.002 237.633C253.315 238.193 253.599 238.771 253.889 239.344C254.647 240.838 255.399 242.338 255.994 243.906C256.278 244.656 256.536 245.418 256.761 246.187C257.035 247.13 257.294 248.075 257.479 249.039C257.661 249.984 257.746 250.942 257.905 251.891C258.097 253.041 258.399 254.167 258.618 255.312C258.727 255.878 258.789 256.45 258.831 257.023C258.873 257.592 258.878 258.165 258.878 258.734C258.878 259.496 258.858 260.257 258.786 261.016C258.695 261.97 258.502 262.912 258.409 263.867C258.336 264.626 258.323 265.387 258.293 266.148L258.261 266.719L258.141 267.859C257.977 269.014 257.657 270.139 257.428 271.281L256.916 274.133L256.296 276.893L256.138 277.742L256.031 278.695H248.617L246.336 278.695C245.385 278.689 244.432 278.693 243.484 278.598C242.718 278.521 241.958 278.386 241.203 278.236C240.249 278.047 239.298 277.847 238.352 277.621C237.202 277.347 236.053 277.058 234.93 276.688C234.16 276.435 233.397 276.148 232.648 275.835C231.681 275.431 230.723 275.013 229.797 274.519C228.816 273.995 227.866 273.409 226.945 272.787C226.363 272.394 225.788 271.99 225.234 271.556C224.642 271.092 224.076 270.6 223.526 270.088C222.047 268.711 220.688 267.204 219.488 265.578C218.549 264.306 217.713 262.955 216.924 261.586L215.984 259.876L215.085 258.198C214.715 257.555 214.274 256.888 213.606 256.52L213.136 256.324L212.628 256.227L212.093 256.21L210.974 256.301L210.406 256.36L209.266 256.439L207.555 256.527C206.985 256.561 206.415 256.611 205.844 256.619C204.701 256.634 203.563 256.51 202.422 256.473L199.57 256.445C199 256.43 198.427 256.42 197.859 256.356C197.095 256.271 196.337 256.147 195.578 256.023L193.867 255.74C191.951 255.407 190.051 255 188.164 254.528C187.016 254.241 185.87 253.943 184.742 253.585C182.804 252.971 180.925 252.191 179.039 251.434C177.892 250.974 176.742 250.519 175.617 250.003L173.906 249.176L172.195 248.293C171.034 247.663 169.899 246.985 168.773 246.295C167.026 245.225 165.31 244.099 163.641 242.911C162.86 242.356 162.106 241.762 161.359 241.164C160.584 240.543 159.822 239.908 159.078 239.249L157.938 238.217L157.367 237.72L156.227 236.92L155.656 236.689L155.086 236.608L154.516 236.681L153.945 236.898L152.805 237.632L152.234 238.077L151.094 239.018C150.312 239.681 149.549 240.364 148.812 241.077C147.481 242.367 146.196 243.705 144.82 244.95L141.969 247.425C140.399 248.846 138.955 250.397 137.406 251.839C136.847 252.36 136.274 252.861 135.695 253.36L133.984 254.839C132.414 256.26 130.971 257.811 129.422 259.253C128.863 259.774 128.29 260.275 127.711 260.774L126 262.253C124.825 263.316 123.714 264.447 122.581 265.552L121.463 266.592L120.388 267.496L120.109 267.723L119.156 268.43L119.529 269.383L120.074 270.224L120.952 271.244L122.019 272.259L123.719 273.702C124.47 274.33 125.219 274.967 126 275.559C126.937 276.269 127.896 276.95 128.852 277.635C129.98 278.444 131.109 279.251 132.273 280.01C133.582 280.862 134.927 281.656 136.266 282.459L139.117 284.155C139.865 284.588 140.63 284.995 141.398 285.392L143.109 286.249L144.82 287.074C145.949 287.592 147.102 288.059 148.242 288.551L149.953 289.289L152.805 290.444C153.561 290.745 154.318 291.048 155.086 291.32C156.402 291.786 157.749 292.154 159.078 292.579C160.408 293.005 161.727 293.466 163.07 293.85C164.015 294.119 164.969 294.353 165.922 294.592C167.25 294.925 168.577 295.267 169.914 295.563L172.195 296.033L175.047 296.597L177.328 296.991L179.609 297.355L181.891 297.604C182.843 297.718 183.787 297.897 184.742 297.989C185.881 298.099 187.026 298.073 188.164 298.183L189.875 298.414C190.445 298.494 191.012 298.566 191.586 298.605C192.534 298.67 193.488 298.655 194.438 298.656H197.859L201.281 298.656C202.041 298.654 202.803 298.657 203.562 298.605C204.137 298.566 204.704 298.494 205.273 298.414L206.984 298.183C208.312 298.056 209.649 298.117 210.977 297.989C211.55 297.934 212.118 297.841 212.688 297.756L213.828 297.59L215.539 297.36L217.82 296.99L219.531 296.689C220.873 296.419 222.197 296.066 223.523 295.732L225.234 295.301C226.189 295.046 227.138 294.774 228.086 294.496L230.367 293.8C231.135 293.55 231.89 293.257 232.648 292.98C233.411 292.701 234.178 292.432 234.93 292.125C235.9 291.729 236.84 291.271 237.781 290.811L240.062 289.672C241.788 288.809 243.536 287.979 245.195 286.992C246.363 286.297 247.487 285.532 248.617 284.779C249.574 284.14 250.536 283.507 251.469 282.833C252.245 282.272 253.002 281.685 253.75 281.086C254.328 280.624 254.903 280.156 255.461 279.671C256.651 278.637 257.767 277.526 258.883 276.413C260.008 275.292 261.147 274.178 262.205 272.992C263.18 271.901 264.065 270.739 264.942 269.57C265.648 268.632 266.352 267.69 267.012 266.719C267.643 265.79 268.229 264.832 268.804 263.867C269.472 262.746 270.121 261.613 270.705 260.445C271.447 258.962 272.08 257.428 272.678 255.883C273.043 254.941 273.389 253.994 273.694 253.031C274.111 251.717 274.451 250.379 274.777 249.039C275.055 247.904 275.307 246.764 275.533 245.617C275.645 245.05 275.753 244.48 275.827 243.906C275.902 243.337 275.944 242.768 275.972 242.195L276.043 240.484L276.155 239.344C276.26 238.584 276.381 237.827 276.458 237.062L276.489 235.922C276.46 234.771 276.203 233.642 276.089 232.5L275.896 229.648C275.799 228.693 275.627 227.744 275.467 226.797L275.165 225.086C274.96 224.126 274.722 223.175 274.44 222.234C274.034 220.88 273.545 219.556 273.024 218.242C272.644 217.283 272.256 216.327 271.824 215.391C271.376 214.421 270.888 213.472 270.368 212.539C269.492 210.968 268.544 209.427 267.481 207.977C266.761 206.994 265.98 206.06 265.201 205.125C264.413 204.178 263.637 203.21 262.778 202.325C261.741 201.255 260.581 200.318 259.453 199.348C258.696 198.696 257.954 198.025 257.172 197.404C256.061 196.52 254.922 195.677 253.75 194.876C252.633 194.112 251.486 193.394 250.328 192.694C249.388 192.126 248.442 191.567 247.477 191.043C246.165 190.332 244.819 189.683 243.484 189.015C241.786 188.166 240.098 187.295 238.352 186.548C237.039 185.987 235.704 185.469 234.359 184.988L231.508 183.993L229.227 183.125C228.471 182.841 227.71 182.573 226.945 182.315C226 181.996 225.05 181.697 224.094 181.414L221.812 180.761L219.531 180.045L217.82 179.541L216.68 179.221L208.695 176.94L206.414 176.279L204.703 175.799L202.422 175.139L200.141 174.488C198.801 174.085 197.473 173.637 196.148 173.186C194.804 172.728 193.473 172.236 192.156 171.702C190.588 171.067 189.037 170.39 187.594 169.499C187.005 169.135 186.431 168.746 185.883 168.323C185.092 167.712 184.349 167.04 183.655 166.321C182.813 165.449 182.046 164.507 181.382 163.492C180.795 162.595 180.305 161.645 179.928 160.641C179.58 159.713 179.361 158.744 179.106 157.789L178.636 156.078C178.479 155.51 178.315 154.944 178.19 154.367C178.026 153.613 177.932 152.85 177.824 152.086L177.562 150.375L177.188 148.094C177.063 147.336 176.929 146.578 176.855 145.812C176.781 145.053 176.767 144.293 176.76 143.531L176.758 141.25C176.758 139.92 176.726 138.583 176.855 137.258C176.929 136.492 177.062 135.735 177.188 134.977C177.346 134.023 177.496 133.069 177.707 132.125C177.922 131.164 178.195 130.219 178.469 129.273C178.746 128.319 179.014 127.358 179.348 126.422C179.622 125.649 179.942 124.893 180.269 124.141C180.687 123.177 181.106 122.217 181.599 121.289C182.116 120.317 182.691 119.372 183.274 118.438C184.003 117.267 184.754 116.101 185.608 115.016C186.897 113.377 188.401 111.922 189.875 110.454C191.16 109.173 192.438 107.881 193.866 106.757C194.569 106.204 195.308 105.698 196.057 105.21L196.628 104.865L196.906 104.686L197.859 104.18L197.24 103.846L196.994 103.814L196.536 103.703L195.544 103.651L194.997 103.668C194.233 103.705 193.482 103.831 192.727 103.94L191.016 104.18L189.305 104.428C188.16 104.629 187.022 104.863 185.883 105.092L183.602 105.562C182.647 105.777 181.698 106.01 180.75 106.25L179.039 106.705L176.188 107.588L173.336 108.466C172.377 108.786 171.433 109.147 170.484 109.494C168.953 110.056 167.423 110.625 165.922 111.267C164.956 111.68 164.013 112.133 163.07 112.595L160.789 113.736L159.078 114.622C158.115 115.151 157.168 115.707 156.227 116.273C155.454 116.737 154.69 117.215 153.945 117.722C152.569 118.659 151.254 119.684 149.953 120.721C148.985 121.493 148.029 122.277 147.102 123.098C146.318 123.79 145.57 124.531 144.843 125.284C144.305 125.839 143.777 126.405 143.274 126.992C142.477 127.925 141.707 128.88 140.948 129.844C139.928 131.139 138.922 132.449 138.028 133.836C137.549 134.578 137.109 135.344 136.683 136.117L135.757 137.828L135.187 138.969L134.401 140.68C133.979 141.623 133.574 142.573 133.188 143.531C132.81 144.472 132.439 145.417 132.129 146.383C131.887 147.135 131.685 147.899 131.492 148.664C131.253 149.611 131.011 150.558 130.819 151.516L130.517 153.227L130.236 154.937C130.155 155.506 130.074 156.075 130.044 156.648C129.992 157.599 129.994 158.549 129.992 159.5V161.781L129.993 165.203C129.997 166.154 129.994 167.107 130.09 168.055C130.166 168.822 130.306 169.579 130.451 170.336L130.905 172.617C131.101 173.573 131.297 174.528 131.558 175.469C131.824 176.43 132.149 177.375 132.463 178.32C132.845 179.467 133.218 180.621 133.672 181.742C134.066 182.713 134.52 183.657 134.988 184.594L135.872 186.305C136.29 187.077 136.734 187.833 137.187 188.586C137.534 189.165 137.896 189.737 138.273 190.297C138.801 191.079 139.36 191.838 139.946 192.578L141.353 194.289C142.149 195.247 142.942 196.208 143.777 197.132C144.289 197.7 144.837 198.236 145.399 198.754C146.307 199.592 147.277 200.361 148.242 201.131C149.722 202.311 151.222 203.469 152.805 204.51C153.552 205.001 154.318 205.463 155.086 205.921C155.839 206.37 156.596 206.813 157.367 207.23C158.306 207.739 159.265 208.209 160.219 208.688C161.916 209.539 163.605 210.408 165.352 211.155C166.293 211.557 167.248 211.929 168.203 212.297L170.484 213.138C171.814 213.634 173.129 214.169 174.477 214.618C175.795 215.057 177.139 215.402 178.469 215.801L181.888 216.857C182.706 217.091 183.53 217.298 184.36 217.485L185.312 217.672Z" fill="#60BC56"/>
<path d="M217.82 146.383L218.773 146.585L219.052 146.667L219.623 146.819L221.814 147.526C222.58 147.782 223.344 148.049 224.094 148.352C225.458 148.905 226.774 149.57 228.086 150.236C228.853 150.625 229.624 151.01 230.367 151.443L230.938 151.774C231.709 152.243 232.467 152.73 233.219 153.229C233.988 153.739 234.756 154.253 235.5 154.798C236.083 155.227 236.649 155.677 237.211 156.132L238.921 157.555L240.599 159.012L241.59 160.001L242.295 160.831L242.914 161.781L243.867 161.408L244.716 160.863L245.78 159.985C246.358 159.455 246.917 158.906 247.477 158.357C248.611 157.243 249.718 156.102 250.898 155.034L253.18 153.064C253.763 152.553 254.331 152.029 254.891 151.493L256.602 149.804L258.883 147.523L265.156 141.25C266.103 140.304 267.04 139.346 268.008 138.421C268.568 137.885 269.136 137.361 269.719 136.85L272 134.88C272.98 133.993 273.917 133.06 274.851 132.124C275.595 131.38 276.336 130.634 277.048 129.858L277.926 128.794L278.276 128.223L278.471 127.945L278.844 126.992L276.537 125.325L273.711 123.244C272.959 122.707 272.197 122.186 271.43 121.672L269.719 120.545L268.578 119.835L266.297 118.523C265.348 117.981 264.407 117.423 263.445 116.903C262.506 116.395 261.548 115.924 260.594 115.445L258.312 114.304C257.366 113.832 256.423 113.351 255.461 112.911C254.15 112.311 252.807 111.787 251.469 111.252C250.332 110.796 249.197 110.335 248.047 109.913C246.915 109.498 245.771 109.117 244.625 108.743L243.484 108.373L242.344 108.069C241.776 107.964 241.202 107.91 240.633 108.051C240 108.208 239.456 108.537 238.944 108.932C238.364 109.38 237.867 109.924 237.376 110.464C236.881 111.008 236.418 111.588 235.961 112.164L234.632 113.875C234.077 114.62 233.551 115.386 233.031 116.156C232.149 117.466 231.3 118.797 230.484 120.148C229.916 121.088 229.356 122.034 228.832 123C228.324 123.939 227.853 124.897 227.375 125.852L226.234 128.133C225.571 129.459 224.889 130.777 224.27 132.125L223.282 134.406L222.508 136.117L221.383 138.398L219.954 141.25L218.779 143.517L218.286 144.581L218.097 145.152L217.99 145.43L217.82 146.383Z" fill="#60BC56"/>
<path d="M178.088 130.224V130.604H178.273V130.414L178.088 130.224Z" fill="#249D4B"/>
<path d="M177.328 132.125V133.836L177.658 133.337V132.809V132.624L177.328 132.125Z" fill="#37A74F"/>
<path d="M176.758 135.547V145.242L177.091 144.623L177.124 144.377L177.237 143.918C177.296 143.407 177.304 142.894 177.32 142.38L177.328 141.249L177.328 140.109L177.309 137.862L177.237 136.871L177.124 136.412L177.091 136.166L176.758 135.547Z" fill="#219B4B"/>
<path d="M176.758 145.242V147.523L177.071 146.939V146.736L177.145 146.383L177.071 145.827L176.758 145.242Z" fill="#44AD51"/>
<path d="M177.898 153.227V154.938L178.229 154.438V154.254V153.726L177.898 153.227Z" fill="#289E4C"/>
<path d="M188.734 211.398L189.354 211.732L189.6 211.765L190.058 211.877C190.569 211.937 191.083 211.945 191.597 211.961L193.867 211.969H200.141L199.521 211.635L199.275 211.603L198.817 211.49C198.306 211.43 197.792 211.422 197.278 211.406L195.008 211.398H188.734Z" fill="#139448"/>
<path d="M200.141 211.398L200.76 211.732L201.006 211.765L201.463 211.877C201.966 211.936 202.472 211.944 202.977 211.961L204.043 211.968L205.273 211.969L204.654 211.635L204.408 211.603L203.951 211.49C203.448 211.431 202.942 211.423 202.437 211.406L201.371 211.399L200.141 211.398Z" fill="#2FA24D"/>
<path d="M179.609 213.109L180.229 213.86L180.475 214.057L180.933 214.475L181.924 215.208L184.172 216.804C185.14 217.526 186.08 218.287 187.023 219.041C187.978 219.803 188.941 220.556 189.875 221.344C190.457 221.835 191.033 222.332 191.586 222.856C192.554 223.771 193.495 224.714 194.438 225.656C195.74 226.958 197.059 228.249 198.259 229.648C198.89 230.385 199.48 231.156 200.066 231.93L201.763 234.211C202.168 234.774 202.571 235.339 202.947 235.922C203.672 237.044 204.357 238.191 205.032 239.344L206.004 241.055L206.654 242.195C207.195 243.138 207.747 244.074 208.234 245.047C208.7 245.979 209.095 246.942 209.507 247.898C209.839 248.667 210.189 249.426 210.553 250.18L211.406 251.891C211.884 252.845 212.356 253.803 212.864 254.742L214.793 258.164L215.684 259.875C216.084 260.643 216.492 261.406 216.924 262.156C217.713 263.526 218.549 264.876 219.488 266.148C220.828 267.964 222.362 269.646 224.094 271.095C224.995 271.85 225.96 272.526 226.945 273.164C227.507 273.527 228.079 273.868 228.656 274.204L229.227 274.519L230.367 275.091L232.078 275.835C232.639 276.068 233.211 276.286 233.789 276.471L234.93 276.793L236.07 277.044L237.211 277.315L237.781 277.473C238.349 277.631 238.913 277.8 239.492 277.912C240.247 278.056 241.009 278.103 241.773 278.167L242.914 278.288L244.055 278.453C244.625 278.531 245.191 278.605 245.766 278.644C246.335 278.683 246.906 278.688 247.477 278.693L249.758 278.695H256.031L256.088 277.742L256.203 276.893C256.403 275.774 256.693 274.676 256.916 273.562L257.217 271.852L257.52 270.141C257.734 269.002 257.998 267.868 258.148 266.719C258.221 266.15 258.267 265.581 258.29 265.008L258.312 263.297L258.312 259.875L258.312 256.453C258.307 255.502 258.31 254.549 258.215 253.602C258.139 252.834 257.998 252.077 257.854 251.32L257.414 249.039C257.241 248.088 257.109 247.129 256.885 246.187C256.654 245.218 256.346 244.268 255.994 243.336C255.401 241.768 254.647 240.267 253.889 238.773C253.599 238.201 253.315 237.623 253.002 237.062L252.351 235.922C251.879 235.148 251.395 234.383 250.874 233.641L250.041 232.5L248.661 230.791C248.045 230.045 247.418 229.299 246.743 228.605C245.73 227.561 244.603 226.631 243.484 225.704C242.372 224.784 241.242 223.887 240.062 223.055C238.955 222.274 237.804 221.561 236.641 220.868C235.705 220.31 234.764 219.761 233.789 219.274C232.492 218.625 231.142 218.096 229.797 217.558C228.664 217.104 227.532 216.645 226.375 216.255C225.622 216.002 224.857 215.781 224.094 215.558C223.146 215.281 222.197 215.005 221.242 214.754C219.918 214.407 218.586 214.096 217.25 213.798L215.539 213.409C214.778 213.221 214.026 212.99 213.258 212.832L212.117 212.636L210.406 212.451L209.266 212.297C208.696 212.214 208.128 212.12 207.555 212.066C206.229 211.939 204.892 211.969 203.562 211.969H197.859H189.875L187.594 211.969C186.834 211.972 186.072 211.968 185.312 212.02C184.547 212.073 183.791 212.181 183.034 212.305L181.916 212.496L181.412 212.58L180.841 212.721L180.562 212.767L179.609 213.109Z" fill="#008A45"/>
<path d="M208.695 211.969L209.214 212.302L209.464 212.341L210.406 212.539L209.888 212.205L209.638 212.167L208.695 211.969Z" fill="#3AA84F"/>
<path d="M178.469 212.539L179.039 213.68H179.609L180.18 212.539H178.469Z" fill="#2EA24D"/>
<path d="M214.969 213.109L215.487 213.443L215.737 213.482L216.68 213.68L216.161 213.346L215.911 213.307L214.969 213.109Z" fill="#2AA04C"/>
<path d="M218.201 213.87L218.391 214.054H218.581L218.391 213.87H218.201Z" fill="#35A64F"/>
<path d="M220.482 214.44L220.672 214.624H220.862L220.672 214.44H220.482Z" fill="#33A44E"/>
<path d="M257.362 248.849V249.229H257.546V249.039L257.362 248.849Z" fill="#249D4B"/>
<path d="M258.312 254.742V262.727L258.646 262.107L258.679 261.861L258.792 261.403L258.863 260.412L258.882 258.734L258.863 257.057L258.792 256.066L258.679 255.607L258.646 255.362L258.312 254.742Z" fill="#38A74F"/>
<path d="M257.742 267.289V269L258.072 268.501V268.316V267.788L257.742 267.289Z" fill="#3AA94F"/>
<path d="M257.362 270.521V270.901H257.546V270.521H257.362Z" fill="#259D4B"/>
<path d="M256.791 273.943V274.323H256.976V273.943H256.791Z" fill="#38A74F"/>
<path d="M256.221 276.224V276.604H256.406V276.224H256.221Z" fill="#32A44E"/>
<path d="M237.021 277.174V277.359H237.401V277.174H237.021Z" fill="#239D4B"/>
<path d="M241.773 278.125L242.367 278.459L242.548 278.491L243.187 278.637L244.055 278.695L243.462 278.362L243.28 278.33L242.641 278.184L241.773 278.125Z" fill="#35A64F"/>
</g>
</g>
<path d="M352.12 287.64C340.12 287.64 329.24 285 319.48 279.72C309.88 274.28 302.28 266.92 296.68 257.64C291.08 248.36 288.28 237.96 288.28 226.44C288.28 214.92 291.08 204.6 296.68 195.48C302.28 186.36 309.88 179.16 319.48 173.88C329.08 168.44 339.96 165.72 352.12 165.72C364.28 165.72 375.16 168.36 384.76 173.64C394.36 178.92 401.96 186.2 407.56 195.48C413.16 204.6 415.96 214.92 415.96 226.44C415.96 237.96 413.16 248.36 407.56 257.64C401.96 266.92 394.36 274.28 384.76 279.72C375.16 285 364.28 287.64 352.12 287.64ZM352.12 254.28C357.4 254.28 362.04 253.16 366.04 250.92C370.04 248.52 373.08 245.24 375.16 241.08C377.4 236.76 378.52 231.88 378.52 226.44C378.52 221 377.4 216.28 375.16 212.28C372.92 208.12 369.8 204.92 365.8 202.68C361.96 200.28 357.4 199.08 352.12 199.08C347 199.08 342.44 200.28 338.44 202.68C334.44 204.92 331.32 208.12 329.08 212.28C326.84 216.44 325.72 221.24 325.72 226.68C325.72 231.96 326.84 236.76 329.08 241.08C331.32 245.24 334.44 248.52 338.44 250.92C342.44 253.16 347 254.28 352.12 254.28ZM508.881 285L468.081 224.52L508.641 168.36H549.681L500.721 231.48L501.921 216.36L552.081 285H508.881ZM434.241 285V110.76H470.961V285H434.241ZM616.261 287.64C604.261 287.64 593.381 285 583.621 279.72C574.021 274.28 566.421 266.92 560.821 257.64C555.221 248.36 552.421 237.96 552.421 226.44C552.421 214.92 555.221 204.6 560.821 195.48C566.421 186.36 574.021 179.16 583.621 173.88C593.221 168.44 604.101 165.72 616.261 165.72C628.421 165.72 639.301 168.36 648.901 173.64C658.501 178.92 666.101 186.2 671.701 195.48C677.301 204.6 680.101 214.92 680.101 226.44C680.101 237.96 677.301 248.36 671.701 257.64C666.101 266.92 658.501 274.28 648.901 279.72C639.301 285 628.421 287.64 616.261 287.64ZM616.261 254.28C621.541 254.28 626.181 253.16 630.181 250.92C634.181 248.52 637.221 245.24 639.301 241.08C641.541 236.76 642.661 231.88 642.661 226.44C642.661 221 641.541 216.28 639.301 212.28C637.061 208.12 633.941 204.92 629.941 202.68C626.101 200.28 621.541 199.08 616.261 199.08C611.141 199.08 606.581 200.28 602.581 202.68C598.581 204.92 595.461 208.12 593.221 212.28C590.981 216.44 589.861 221.24 589.861 226.68C589.861 231.96 590.981 236.76 593.221 241.08C595.461 245.24 598.581 248.52 602.581 250.92C606.581 253.16 611.141 254.28 616.261 254.28ZM782.142 287.64C769.502 287.64 757.742 285.48 746.862 281.16C736.142 276.68 726.702 270.44 718.542 262.44C710.542 254.44 704.302 245.16 699.822 234.6C695.342 223.88 693.102 212.36 693.102 200.04C693.102 187.72 695.342 176.28 699.822 165.72C704.302 155 710.542 145.72 718.542 137.88C726.542 130.04 735.902 123.96 746.622 119.64C757.502 115.16 769.262 112.92 781.902 112.92C795.342 112.92 807.262 115.08 817.662 119.4C828.222 123.72 837.422 129.64 845.262 137.16L820.062 162.6C815.582 157.8 810.142 154.04 803.742 151.32C797.502 148.6 790.222 147.24 781.902 147.24C774.542 147.24 767.742 148.52 761.502 151.08C755.422 153.48 750.142 157 745.662 161.64C741.342 166.28 737.902 171.88 735.342 178.44C732.942 185 731.742 192.2 731.742 200.04C731.742 208.04 732.942 215.32 735.342 221.88C737.902 228.44 741.342 234.04 745.662 238.68C750.142 243.32 755.422 246.92 761.502 249.48C767.742 252.04 774.542 253.32 781.902 253.32C790.542 253.32 798.062 251.96 804.462 249.24C810.862 246.52 816.382 242.76 821.022 237.96L846.462 263.4C838.302 270.92 828.942 276.84 818.382 281.16C807.982 285.48 795.902 287.64 782.142 287.64ZM909.758 287.4C899.038 287.4 889.438 284.76 880.958 279.48C872.638 274.2 865.998 267 861.038 257.88C856.238 248.76 853.838 238.36 853.838 226.68C853.838 215 856.238 204.6 861.038 195.48C865.998 186.36 872.638 179.16 880.958 173.88C889.438 168.6 899.038 165.96 909.758 165.96C917.598 165.96 924.638 167.48 930.878 170.52C937.278 173.56 942.478 177.8 946.478 183.24C950.478 188.52 952.718 194.6 953.198 201.48V251.88C952.718 258.76 950.478 264.92 946.478 270.36C942.638 275.64 937.518 279.8 931.118 282.84C924.718 285.88 917.598 287.4 909.758 287.4ZM917.198 254.28C925.038 254.28 931.358 251.72 936.158 246.6C940.958 241.32 943.358 234.68 943.358 226.68C943.358 221.24 942.238 216.44 939.998 212.28C937.918 208.12 934.878 204.92 930.878 202.68C927.038 200.28 922.558 199.08 917.438 199.08C912.318 199.08 907.758 200.28 903.758 202.68C899.918 204.92 896.798 208.12 894.398 212.28C892.158 216.44 891.038 221.24 891.038 226.68C891.038 231.96 892.158 236.68 894.398 240.84C896.638 245 899.758 248.28 903.758 250.68C907.758 253.08 912.238 254.28 917.198 254.28ZM941.918 285V253.56L947.438 225.24L941.918 196.92V168.36H977.918V285H941.918ZM1003.77 285V168.36H1040.49V285H1003.77ZM1040.49 220.92L1025.13 208.92C1028.17 195.32 1033.29 184.76 1040.49 177.24C1047.69 169.72 1057.69 165.96 1070.49 165.96C1076.09 165.96 1080.97 166.84 1085.13 168.6C1089.45 170.2 1093.21 172.76 1096.41 176.28L1074.57 203.88C1072.97 202.12 1070.97 200.76 1068.57 199.8C1066.17 198.84 1063.45 198.36 1060.41 198.36C1054.33 198.36 1049.45 200.28 1045.77 204.12C1042.25 207.8 1040.49 213.4 1040.49 220.92ZM1123.93 285V120.12H1160.65V285H1123.93ZM1097.53 199.56V168.36H1187.05V199.56H1097.53Z" fill="black" fill-opacity="0.82"/>
</g>
<defs>
<clipPath id="clip0_1_2">
<rect width="1285" height="340" fill="white"/>
</clipPath>
<clipPath id="clip1_1_2">
<rect width="292" height="292" fill="white" transform="translate(53 50)"/>
</clipPath>
</defs>
</svg>
