<svg width="512" height="512" viewBox="0 0 512 512" fill="none" xmlns="http://www.w3.org/2000/svg">
<g clip-path="url(#clip0_1_2)">
<path d="M222 195H232C233.997 194.999 236.006 195.047 238 194.91C240.014 194.773 241.997 194.395 244 194.155L247 193.845C248.674 193.632 250.336 193.36 252 193.079C253.677 192.797 255.348 192.51 257 192.101C258.35 191.767 259.685 191.374 261 190.921C262.01 190.574 263.006 190.187 264 189.796C265.689 189.13 267.38 188.449 269 187.627C270.736 186.746 272.376 185.71 274 184.64C275.385 183.728 276.728 182.739 277.999 181.674C280.057 179.952 281.955 178.038 283.699 175.999C285.048 174.422 286.304 172.762 287.402 171C288.206 169.709 288.885 168.348 289.587 167L291.167 164L292.742 161L295.247 156C296.075 154.34 296.917 152.686 297.691 151L299.861 146C300.765 143.971 301.761 141.987 302.753 140L304.753 136C305.923 133.66 307.062 131.3 308.309 129C309.041 127.648 309.814 126.318 310.604 125C311.817 122.978 313.053 120.973 314.344 119C315.904 116.617 317.505 114.263 319.236 112C320.011 110.987 320.801 109.981 321.616 109L323.289 107.004C324.182 106.006 325.08 105.024 326.039 104.09C327.935 102.242 330.014 100.593 332 98.8449L336 95.2855C338.273 93.3589 340.601 91.502 343 89.7346L346 87.5795C347.653 86.396 349.293 85.1964 350.999 84.0895L354.851 81.7014L356.39 80.5255L357.346 79.4429L358 78C356.32 77.9861 354.649 77.9944 352.975 77.8302L348 77.169L343 76.831L338 76.1698C336.337 76.0115 334.669 76.0088 333 76.0008L328 76H321C319.668 76.0007 318.331 75.981 317 76.0394C315.994 76.0834 314.999 76.1621 314 76.2855L310 76.831C308.67 76.964 307.333 77.0008 306 77.0857L304 77.2855L300 77.8696L297 78.2747L294 78.8048C290.637 79.4534 287.32 80.2927 284 81.1266C282.33 81.5461 280.656 81.9549 279 82.4275C277.657 82.8107 276.326 83.2331 275 83.6705C273.66 84.1127 272.318 84.5602 271 85.0648C269.989 85.4518 268.983 85.8574 268 86.3117C266.316 87.09 264.66 87.9248 263 88.7531L259.015 90.7562C258.055 91.2528 257.094 91.7502 256.17 92.3117C254.337 93.4247 252.655 94.7623 250.91 96.0038C249.271 97.1705 247.581 98.2703 246 99.5178C243.498 101.492 241.251 103.751 239.001 106.001C236.751 108.25 234.488 110.496 232.518 113C231.262 114.596 230.154 116.296 229.054 118C228.208 119.311 227.397 120.65 226.616 122C226.044 122.988 225.482 123.98 224.97 125C224.313 126.308 223.734 127.655 223.157 129C222.451 130.644 221.754 132.29 221.219 134C220.504 136.288 220.072 138.654 219.6 141L219.001 144L218.439 147C218.284 147.995 218.144 148.994 218.09 150C217.999 151.666 218.003 153.332 218 155V162V169C218.004 171.337 217.97 173.68 218.3 176C218.589 178.024 219.15 179.997 219.551 182L220.449 187L221.535 191.84L221.813 193.329L222 195Z" fill="#008A45"/>
<path d="M232 294L230.914 292.683L230.483 292.339L229.679 291.606C228.81 290.93 227.903 290.3 226.983 289.695C225.742 288.88 224.466 288.121 223.16 287.414L222.159 286.93L221.671 286.673L220 286L221.671 285.415L222.159 285.357L223.16 285.157L226.005 284.924C227.009 284.838 228.001 284.709 229 284.576L232 284.166L236 283.834C238.006 283.619 239.985 283.227 242 283.09C243.663 282.976 245.335 283.003 247 283H253L259 283.001C260.333 283.004 261.669 282.998 263 283.09C265.015 283.227 266.994 283.619 269 283.834C270.665 284.012 272.339 284.065 274 284.289C276.351 284.605 278.667 285.154 281 285.576L286 286.449C287.343 286.708 288.676 287.039 290 287.378C291.342 287.722 292.686 288.078 294 288.519L299 290.258L303 291.516C305.363 292.334 307.682 293.266 310 294.201C312.024 295.017 314.047 295.832 316 296.809C317.709 297.663 319.359 298.626 321 299.604C322.691 300.612 324.372 301.638 326 302.746C328.071 304.156 330.056 305.682 332 307.261L334.996 309.754C336.305 310.857 337.618 311.958 338.83 313.17C340.346 314.686 341.71 316.351 343.076 318.001C343.896 318.99 344.717 319.979 345.497 321C346.243 321.977 346.953 322.98 347.64 324C348.303 324.983 348.93 325.988 349.547 327L350.688 329C351.238 329.982 351.735 330.996 352.244 332C353.573 334.62 354.891 337.25 355.934 340C356.433 341.314 356.885 342.651 357.279 344C357.76 345.652 358.215 347.309 358.539 349C358.857 350.657 359.007 352.337 359.285 354C359.623 356.017 360.151 357.992 360.536 360C360.726 360.991 360.836 361.994 360.91 363C360.982 363.997 360.992 365.001 360.992 366C360.992 367.335 360.957 368.67 360.83 370C360.671 371.674 360.332 373.326 360.17 375C360.041 376.33 360.018 377.665 359.965 379L359.91 380L359.7 382C359.411 384.024 358.85 385.997 358.449 388L357.551 393L356.465 397.84L356.187 399.329L356 401H343L339 400.999C337.332 400.989 335.662 400.996 334 400.829C332.656 400.695 331.324 400.457 330 400.195C328.327 399.864 326.659 399.512 325 399.116C322.985 398.635 320.969 398.129 319 397.481C317.65 397.036 316.312 396.533 315 395.985C313.303 395.277 311.624 394.543 310 393.677C308.28 392.759 306.615 391.731 305 390.64C303.979 389.951 302.97 389.243 302 388.482C300.962 387.668 299.969 386.805 299.004 385.907C296.411 383.494 294.028 380.85 291.924 378C290.278 375.769 288.811 373.401 287.428 371L285.78 368.001L284.204 365.059C283.555 363.932 282.781 362.762 281.61 362.117L280.787 361.773L279.895 361.603L278.957 361.573L276.996 361.734L275.999 361.836L274 361.975L271 362.13C270.001 362.189 269.002 362.277 268 362.29C265.996 362.317 264.001 362.099 262 362.035L257 361.985C256 361.96 254.995 361.942 254 361.83C252.659 361.68 251.331 361.464 250 361.246L247 360.75C243.64 360.166 240.308 359.452 237 358.625C234.987 358.122 232.978 357.599 231 356.971C227.602 355.895 224.306 354.526 221 353.2C218.988 352.393 216.972 351.595 215 350.691L212 349.241L209 347.691C206.964 346.588 204.974 345.398 203 344.189C199.936 342.312 196.928 340.338 194 338.255C192.632 337.281 191.31 336.241 190 335.192C188.641 334.103 187.304 332.99 186 331.834L184 330.024L183 329.153L181 327.751L180 327.345L179 327.203L178 327.331L177 327.712L175 328.998L174 329.778L172 331.429C170.629 332.591 169.291 333.789 168 335.039C165.665 337.301 163.412 339.648 161 341.83L156 346.17C153.247 348.661 150.716 351.381 148 353.91C147.02 354.823 146.015 355.702 145 356.576L142 359.17C139.247 361.661 136.716 364.381 134 366.91C133.02 367.823 132.015 368.702 131 369.576L128 372.17C125.94 374.033 123.992 376.016 122.005 377.955L120.045 379.777L118.159 381.363L117.671 381.761L116 383L116.654 384.671L117.61 386.146L119.149 387.935L121.019 389.715L124 392.245C125.318 393.346 126.631 394.462 128 395.5C129.643 396.746 131.324 397.939 133 399.14C134.979 400.559 136.959 401.975 139 403.305C141.294 404.799 143.653 406.192 146 407.6L151 410.573C152.312 411.333 153.652 412.046 155 412.742L158 414.244L161 415.691C162.979 416.6 165 417.419 167 418.281L170 419.576L175 421.6C176.327 422.128 177.654 422.659 179 423.136C181.307 423.953 183.67 424.598 186 425.344C188.332 426.091 190.644 426.9 193 427.573C194.656 428.045 196.33 428.454 198 428.873C200.329 429.458 202.655 430.058 205 430.576L209 431.4L214 432.389L218 433.08L222 433.718L226 434.155C227.67 434.355 229.326 434.668 231 434.83C232.996 435.023 235.004 434.977 237 435.17L240 435.576C240.999 435.715 241.993 435.842 243 435.91C244.663 436.024 246.335 435.997 248 436H254L260 435.999C261.333 435.996 262.669 436.002 264 435.91C265.007 435.842 266.001 435.715 267 435.576L270 435.17C272.328 434.947 274.672 435.054 277 434.83C278.006 434.734 279.002 434.57 280 434.421L282 434.13L285 433.728L289 433.079L292 432.551C294.352 432.078 296.674 431.458 299 430.873L302 430.116C303.674 429.67 305.337 429.193 307 428.706L311 427.485C312.347 427.047 313.67 426.533 315 426.047C316.337 425.558 317.682 425.086 319 424.548C320.702 423.853 322.35 423.051 324 422.244L328 420.247C331.026 418.734 334.09 417.278 337 415.547C339.047 414.329 341.019 412.988 343 411.667C344.678 410.547 346.365 409.437 348 408.255C349.361 407.271 350.689 406.242 352 405.192C353.013 404.381 354.021 403.562 355 402.711C357.086 400.897 359.043 398.95 361 396.999C362.973 395.033 364.97 393.079 366.826 391C368.534 389.087 370.086 387.049 371.625 385C372.862 383.354 374.097 381.703 375.254 380C376.36 378.371 377.388 376.691 378.396 375C379.568 373.034 380.706 371.048 381.73 369C383.03 366.4 384.14 363.71 385.189 361C385.828 359.349 386.436 357.688 386.971 356C387.702 353.695 388.297 351.349 388.87 349C389.356 347.009 389.798 345.011 390.195 343C390.392 342.006 390.58 341.006 390.711 340C390.841 339.002 390.915 338.005 390.965 337L391.089 334L391.285 332C391.47 330.667 391.681 329.34 391.816 328L391.871 326C391.821 323.982 391.369 322.003 391.169 320L390.831 315C390.661 313.324 390.359 311.661 390.079 310L389.55 307C389.19 305.316 388.773 303.65 388.279 302C387.567 299.626 386.709 297.303 385.796 295C385.13 293.319 384.448 291.642 383.691 290C382.906 288.3 382.05 286.635 381.138 285C379.602 282.246 377.941 279.544 376.076 277C374.814 275.278 373.445 273.64 372.079 272C370.696 270.339 369.336 268.643 367.83 267.09C366.012 265.214 363.977 263.571 362 261.87C360.673 260.727 359.371 259.551 358 258.461C356.052 256.912 354.055 255.433 352 254.029C350.041 252.69 348.031 251.43 346 250.204C344.352 249.208 342.693 248.227 341 247.309C338.7 246.062 336.34 244.923 334 243.753C331.022 242.264 328.063 240.737 325 239.427C322.698 238.443 320.358 237.535 318 236.692L313 234.947L309 233.424C307.675 232.926 306.341 232.456 305 232.004C303.343 231.445 301.677 230.921 300 230.424L296 229.28L292 228.025L289 227.141L287 226.579L273 222.579L269 221.421L266 220.579L262 219.421L258 218.28C255.651 217.573 253.322 216.788 251 215.997C248.642 215.194 246.309 214.332 244 213.396C241.251 212.281 238.53 211.094 236 209.532C234.967 208.894 233.962 208.213 233.001 207.471C231.614 206.399 230.31 205.221 229.093 203.96C227.618 202.431 226.272 200.779 225.109 199C224.079 197.426 223.219 195.761 222.559 194C221.949 192.374 221.564 190.674 221.117 189L220.294 186C220.018 185.004 219.73 184.011 219.511 183C219.224 181.677 219.059 180.339 218.87 179L218.41 176L217.754 172C217.536 170.671 217.3 169.342 217.17 168C217.041 166.669 217.016 165.336 217.004 164L217 160C217.001 157.668 216.945 155.324 217.17 153C217.3 151.658 217.533 150.329 217.754 149C218.031 147.328 218.295 145.655 218.665 144C219.042 142.315 219.52 140.658 220.001 139C220.486 137.327 220.956 135.642 221.541 134C222.023 132.645 222.584 131.319 223.157 130C223.89 128.311 224.624 126.627 225.489 125C226.395 123.295 227.404 121.639 228.425 120C229.704 117.947 231.021 115.903 232.518 114C234.778 111.127 237.416 108.576 240 106.001C242.253 103.755 244.494 101.49 246.998 99.5185C248.23 98.549 249.527 97.6618 250.84 96.8063L251.841 96.2022L252.329 95.8881L254 95L252.914 94.4151L252.483 94.3588L251.679 94.1644L249.941 94.0733L248.981 94.1034C247.642 94.1675 246.325 94.3888 245 94.5795L242 95L239 95.4352C236.993 95.787 234.997 96.1985 233 96.6003L229 97.4244C227.327 97.8012 225.662 98.209 224 98.6296L221 99.4275L216 100.976L211 102.515C209.319 103.076 207.663 103.71 206 104.319C203.314 105.304 200.632 106.302 198 107.427C196.307 108.151 194.653 108.946 193 109.756L189 111.756L186 113.309C184.312 114.238 182.651 115.212 181 116.204C179.646 117.019 178.306 117.857 177 118.746C174.586 120.388 172.281 122.185 170 124.004C168.302 125.358 166.627 126.732 165 128.171C163.626 129.386 162.315 130.685 161.039 132.004C160.097 132.978 159.17 133.97 158.289 135C156.892 136.635 155.541 138.31 154.211 140C152.422 142.271 150.657 144.568 149.09 147C148.251 148.302 147.478 149.644 146.731 151L145.109 154L144.109 156L142.731 159C141.991 160.654 141.281 162.319 140.604 164C139.94 165.65 139.29 167.306 138.746 169C138.323 170.319 137.969 171.658 137.63 173C137.21 174.66 136.787 176.321 136.449 178L135.921 181L135.428 184C135.285 184.996 135.144 185.994 135.09 187C134.999 188.666 135.004 190.332 135 192V196L135.001 202C135.009 203.668 135.004 205.338 135.171 207C135.305 208.345 135.551 209.673 135.804 211L136.601 215C136.944 216.676 137.288 218.35 137.745 220C138.212 221.685 138.781 223.342 139.333 225C140.003 227.011 140.657 229.034 141.453 231C142.143 232.703 142.939 234.357 143.759 236L145.309 239C146.042 240.354 146.822 241.68 147.615 243C148.224 244.015 148.858 245.019 149.52 246C150.446 247.371 151.426 248.702 152.453 250L154.921 253C156.316 254.679 157.707 256.364 159.17 257.985C160.068 258.981 161.03 259.921 162.015 260.829C163.606 262.298 165.308 263.647 167 264.996C169.595 267.066 172.225 269.097 175 270.921C176.31 271.782 177.654 272.593 179 273.396C180.32 274.183 181.648 274.959 183 275.691C184.646 276.583 186.327 277.408 188 278.247C190.976 279.739 193.938 281.263 197 282.573C198.65 283.278 200.325 283.931 202 284.576L206 286.05C208.332 286.92 210.638 287.858 213 288.645C215.311 289.415 217.668 290.02 220 290.72L225.995 292.572C227.429 292.981 228.875 293.344 230.329 293.673L232 294Z" fill="#60BC56"/>
<path d="M289 169L290.671 169.354L291.159 169.498L292.16 169.765L296.002 171.004C297.345 171.453 298.686 171.921 300 172.453C302.392 173.422 304.7 174.589 307 175.756C308.345 176.438 309.697 177.113 311 177.873L312 178.453C313.352 179.276 314.681 180.13 316 181.004C317.349 181.898 318.695 182.799 320 183.756C321.023 184.507 322.014 185.296 323 186.095L325.999 188.59L328.941 191.145L330.679 192.879L331.914 194.333L333 196L334.671 195.346L336.16 194.39L338.025 192.851C339.039 191.921 340.018 190.959 341 189.995C342.989 188.042 344.931 186.042 347 184.17L351 180.715C352.022 179.819 353.018 178.9 354 177.961L357 174.999L361 171L372 160C373.66 158.341 375.303 156.662 377 155.039C377.982 154.1 378.978 153.181 380 152.285L384 148.83C385.719 147.275 387.362 145.639 388.999 143.999C390.303 142.693 391.603 141.385 392.851 140.025L394.39 138.16L395.005 137.159L395.346 136.671L396 135L391.955 132.077L387 128.427C385.682 127.486 384.345 126.572 383 125.671L380 123.695L378 122.45L374 120.15C372.336 119.199 370.686 118.221 369 117.309C367.353 116.418 365.673 115.592 364 114.753L360 112.753C358.34 111.925 356.687 111.081 355 110.309C352.702 109.257 350.346 108.338 348 107.4C346.006 106.602 344.016 105.793 342 105.053C340.016 104.326 338.009 103.657 336 103.001L334 102.353L332 101.819C331.004 101.636 329.998 101.54 329.001 101.788C327.891 102.064 326.936 102.64 326.039 103.333C325.022 104.118 324.151 105.073 323.289 106.019C322.421 106.973 321.609 107.99 320.808 109L318.478 112C317.505 113.307 316.582 114.649 315.671 116C314.124 118.296 312.635 120.63 311.204 123C310.208 124.648 309.227 126.307 308.309 128C307.417 129.646 306.591 131.327 305.753 133L303.753 137C302.591 139.325 301.394 141.637 300.309 144L298.576 148L297.219 151L295.247 155L292.742 160L290.681 163.975L289.816 165.84L289.486 166.841L289.297 167.329L289 169Z" fill="#60BC56"/>
<path d="M219.333 140.667V141.333H219.667V141L219.333 140.667Z" fill="#249D4B"/>
<path d="M218 144V147L218.579 146.125V145.199V144.875L218 144Z" fill="#37A74F"/>
<path d="M217 150V167L217.585 165.914L217.642 165.483L217.84 164.679C217.944 163.783 217.958 162.882 217.986 161.981L217.999 159.999L218 158L217.966 154.059L217.84 152.321L217.642 151.517L217.585 151.086L217 150Z" fill="#219B4B"/>
<path d="M217 167V171L217.549 169.975V169.62L217.679 169L217.549 168.025L217 167Z" fill="#44AD51"/>
<path d="M219 181V184L219.579 183.125V182.801V181.875L219 181Z" fill="#289E4C"/>
<path d="M238 283L239.086 283.585L239.517 283.642L240.321 283.84C241.217 283.944 242.118 283.958 243.019 283.986L247 284H258L256.914 283.415L256.483 283.358L255.679 283.16C254.783 283.056 253.882 283.042 252.981 283.014L249 283H238Z" fill="#139448"/>
<path d="M258 283L259.086 283.585L259.517 283.642L260.319 283.84C261.201 283.943 262.088 283.957 262.974 283.986L264.842 283.999L267 284L265.914 283.415L265.483 283.358L264.681 283.16C263.799 283.057 262.912 283.043 262.026 283.014L260.158 283.001L258 283Z" fill="#2FA24D"/>
<path d="M222 286L223.086 287.317L223.517 287.661L224.321 288.395L226.059 289.68L230 292.478C231.698 293.744 233.345 295.078 235 296.4C236.673 297.736 238.363 299.057 240 300.439C241.02 301.3 242.03 302.172 243 303.09C244.698 304.695 246.348 306.348 248 308C250.283 310.283 252.597 312.546 254.7 315C255.808 316.292 256.842 317.644 257.87 319L260.845 323C261.555 323.987 262.262 324.978 262.921 326C264.192 327.968 265.393 329.978 266.576 332L268.281 335L269.421 337C270.37 338.653 271.338 340.294 272.191 342C273.009 343.635 273.701 345.323 274.424 347C275.006 348.348 275.619 349.679 276.258 351L277.753 354C278.591 355.674 279.418 357.353 280.309 359L283.691 365L285.255 368C285.956 369.346 286.671 370.684 287.428 372C288.811 374.401 290.278 376.769 291.924 379C294.274 382.184 296.964 385.132 300.001 387.674C301.581 388.997 303.272 390.182 305 391.301C305.984 391.938 306.987 392.536 308 393.124L309 393.677L311 394.68L314 395.985C314.983 396.393 315.986 396.775 317 397.1L319 397.664L321 398.105L323 398.579L324 398.857C324.996 399.133 325.984 399.431 327 399.626C328.323 399.879 329.66 399.962 331 400.074L333 400.285L335 400.576C336 400.712 336.993 400.842 338 400.91C338.999 400.979 340 400.987 341 400.996L345 401H356L356.099 399.329L356.301 397.84C356.651 395.878 357.161 393.953 357.551 392L358.08 389L358.611 386C358.985 384.003 359.449 382.016 359.711 380C359.84 379.002 359.92 378.005 359.961 377L359.999 374L360 368L359.999 362C359.991 360.332 359.996 358.662 359.829 357C359.695 355.655 359.449 354.327 359.196 353L358.424 349C358.121 347.333 357.889 345.65 357.497 344C357.092 342.3 356.552 340.634 355.934 339C354.895 336.25 353.573 333.619 352.244 331C351.735 329.996 351.238 328.982 350.688 328L349.547 326C348.72 324.643 347.871 323.301 346.958 322L345.497 320L343.076 317.004C341.996 315.695 340.897 314.388 339.714 313.17C337.937 311.34 335.961 309.709 333.999 308.084C332.05 306.47 330.069 304.898 328 303.439C326.058 302.07 324.04 300.82 322 299.604C320.359 298.626 318.709 297.663 317 296.809C314.726 295.672 312.358 294.743 310 293.8C308.013 293.005 306.029 292.199 304 291.516C302.679 291.072 301.338 290.685 300 290.294C298.338 289.808 296.675 289.324 295 288.884C292.678 288.275 290.342 287.73 288 287.207L285 286.525C283.666 286.196 282.347 285.791 281 285.513L279 285.17L276 284.845L274 284.576C273.001 284.43 272.005 284.266 271 284.17C268.675 283.948 266.332 284.001 264 284H254H240L236 284.001C234.667 284.005 233.331 283.998 232 284.09C230.657 284.182 229.332 284.372 228.005 284.59L226.045 284.924L225.16 285.071L224.159 285.319L223.671 285.4L222 286Z" fill="#008A45"/>
<path d="M273 284L273.909 284.585L274.347 284.653L276 285L275.091 284.415L274.653 284.347L273 284Z" fill="#3AA84F"/>
<path d="M220 285L221 287H222L223 285H220Z" fill="#2EA24D"/>
<path d="M284 286L284.909 286.585L285.347 286.653L287 287L286.091 286.415L285.653 286.347L284 286Z" fill="#2AA04C"/>
<path d="M289.667 287.333L290 287.667H290.333L290 287.333H289.667Z" fill="#35A64F"/>
<path d="M293.667 288.333L294 288.667H294.333L294 288.333H293.667Z" fill="#33A44E"/>
<path d="M358.333 348.667V349.333H358.667V349L358.333 348.667Z" fill="#249D4B"/>
<path d="M360 359V373L360.585 371.914L360.642 371.483L360.84 370.679L360.966 368.941L360.998 366L360.966 363.059L360.84 361.321L360.642 360.517L360.585 360.086L360 359Z" fill="#38A74F"/>
<path d="M359 381V384L359.579 383.125V382.801V381.875L359 381Z" fill="#3AA94F"/>
<path d="M358.333 386.667V387.333H358.667V386.667H358.333Z" fill="#259D4B"/>
<path d="M357.333 392.667V393.333H357.667V392.667H357.333Z" fill="#38A74F"/>
<path d="M356.333 396.667V397.333H356.667V396.667H356.333Z" fill="#32A44E"/>
<path d="M322.667 398.333V398.667H323.333V398.333H322.667Z" fill="#239D4B"/>
<path d="M331 400L332.04 400.585L332.359 400.641L333.478 400.897L335 401L333.96 400.415L333.641 400.359L332.522 400.103L331 400Z" fill="#35A64F"/>
</g>
<defs>
<clipPath id="clip0_1_2">
<rect width="512" height="512" fill="white"/>
</clipPath>
</defs>
</svg>
